<?xml version="1.0" standalone="no"?><!DOCTYPE svg PUBLIC "-//W3C//DTD SVG 1.1//EN" "http://www.w3.org/Graphics/SVG/1.1/DTD/svg11.dtd">
<svg t="1683854460779"
    class="icon"
    viewBox="0 0 1024 1024"
    version="1.1"
    xmlns="http://www.w3.org/2000/svg"
    p-id="5170"
    xmlns:xlink="http://www.w3.org/1999/xlink"
    width="128"
    height="128">
    <path
        d="M0 0h1024v1024H0z"
        fill="#FFFFFF"
        p-id="5171"></path>
    <path
        d="M866.4 46.1H173.1c-65.5 0-119 53.6-119 119v693.3c0 65.5 53.5 119 119 119h693.3c65.5 0 119-53.5 119-119V165.1c0-65.4-53.5-119-119-119z"
        fill="#1A31B9"
        p-id="5172"></path>
    <path
        d="M671.9 628.7c0 58-14.5 100.4-43.5 127.1-29 26.8-59.1 40.2-90.3 40.2v83.6h-46.8V796c-38 0-70.8-15.6-98.7-46.8-27.9-31.2-41.8-79.2-41.8-143.9h77c0 55.8 7.8 90.9 23.4 105.4 15.6 14.5 29 21.7 40.2 21.7V514.9c-53.5-29-88.1-55.2-103.7-78.6-15.6-23.4-23.4-50.7-23.4-82 0-40.2 11.7-73 35.1-98.7 23.4-25.6 54.1-40.7 92-45.2v-63.6h46.8v63.6c37.9 0 68.6 15.1 92 45.2 23.4 30.1 35.1 67.5 35.1 112.1h-73.6c0-33.5-6.2-57.4-18.4-71.9-12.3-14.5-24-21.7-35.1-21.7v187.4c35.7 17.9 66.9 40.2 93.7 66.9 26.7 26.6 40 60.1 40 100.3zM491.3 434.6V274c-13.4 0-26.2 6.2-38.5 18.4-12.3 12.3-18.4 30.7-18.4 55.2 0 15.6 3.3 30.7 10 45.2 6.7 14.5 22.3 28.4 46.9 41.8z m107 210.8c0-24.5-5.6-44.6-16.7-60.2-11.2-15.6-25.7-30.1-43.5-43.5v190.7c13.4-2.2 26.8-8.9 40.2-20.1 13.3-11.1 20-33.5 20-66.9z"
        fill="#FFFFFF"
        p-id="5173"></path>
</svg>